<svg width="92" height="80" viewBox="0 0 92 80" fill="none" xmlns="http://www.w3.org/2000/svg">
<path d="M25.55 50.542C22.9053 50.542 20.0508 49.2376 17.9516 47.2617C15.5534 45.0051 14.9996 42.1305 14.5121 39.5934C14.0678 37.2863 13.6842 35.2938 12.0808 33.9553C10.1315 32.328 6.85025 32.0612 2.32986 33.1633C1.92605 33.2536 1.50292 33.1819 1.15145 32.9635C0.799982 32.7451 0.548252 32.3975 0.45039 31.9954C0.352529 31.5934 0.416352 31.169 0.628135 30.8135C0.839919 30.458 1.18275 30.1998 1.5829 30.0945C7.12898 28.7431 11.344 29.2261 14.1037 31.535C16.5718 33.5956 17.1246 36.4666 17.6122 39.0009C18.0482 41.2685 18.4612 43.41 20.1152 44.9665C22.4315 47.1457 26.0835 48.3462 27.9436 46.4853C28.086 46.3228 28.2604 46.1912 28.4557 46.0988C28.6511 46.0064 28.8634 45.9551 29.0794 45.948C29.2954 45.9409 29.5106 45.9783 29.7116 46.0577C29.9126 46.1371 30.0951 46.257 30.248 46.4098C30.4008 46.5626 30.5206 46.7452 30.6 46.9462C30.6795 47.1472 30.7168 47.3623 30.7097 47.5783C30.7026 47.7943 30.6513 48.0066 30.5589 48.202C30.4665 48.3974 30.335 48.5717 30.1725 48.7142C28.8993 49.991 27.2683 50.542 25.55 50.542Z" fill="white"/>
<path d="M1.57737 59.2038C1.29698 59.2034 1.02174 59.1284 0.779933 58.9865C0.538123 58.8446 0.338454 58.6408 0.201436 58.3962C0.0644175 58.1516 -0.00501128 57.8749 0.000281497 57.5945C0.00557428 57.3142 0.0853977 57.0403 0.231552 56.801C4.48885 49.8356 10.3836 49.0472 13.3061 50.2164C14.2711 50.6028 15.2112 51.0443 16.1191 51.4638C19.624 53.0966 22.6504 54.5068 26.7026 53.1555C28.7972 52.4573 31.4033 51.5917 32.3379 46.9167C32.42 46.5061 32.6618 46.1449 33.0102 45.9126C33.1827 45.7976 33.3762 45.7177 33.5796 45.6775C33.783 45.6372 33.9923 45.6374 34.1956 45.6781C34.3989 45.7187 34.5923 45.799 34.7645 45.9144C34.9368 46.0297 35.0847 46.1779 35.1997 46.3504C35.3147 46.5229 35.3946 46.7164 35.4349 46.9198C35.4751 47.1232 35.4749 47.3325 35.4343 47.5358C34.1409 54.0045 29.9517 55.401 27.7007 56.1516C22.4573 57.8994 18.3793 56.0016 14.7844 54.3265C13.8746 53.9024 13.0154 53.4986 12.1314 53.149C10.8886 52.6523 6.52459 52.5566 2.9241 58.4486C2.78309 58.6793 2.58519 58.8699 2.34937 59.0021C2.11356 59.1343 1.84773 59.2038 1.57737 59.2038Z" fill="white"/>
<path d="M10.1185 73.6867C9.87859 73.6865 9.64183 73.6317 9.42621 73.5265C9.21059 73.4212 9.02177 73.2682 8.87407 73.0791C8.72638 72.89 8.62367 72.6698 8.57376 72.4351C8.52384 72.2004 8.52803 71.9574 8.58599 71.7245C10.3862 64.5236 14.1054 60.7271 20.2761 59.7769C22.2999 59.466 23.8388 59.5727 25.1966 59.6674C27.3979 59.821 28.8495 59.9213 31.5338 58.1606C35.3431 55.6622 36.9327 50.0655 37.136 46.0327C37.1465 45.8255 37.1976 45.6224 37.2865 45.435C37.3755 45.2476 37.5005 45.0795 37.6543 44.9404C37.8082 44.8013 37.988 44.6939 38.1834 44.6242C38.3788 44.5546 38.586 44.5241 38.7932 44.5346C39.0004 44.545 39.2035 44.5962 39.3909 44.6851C39.5783 44.7741 39.7463 44.8991 39.8854 45.0529C40.0246 45.2068 40.132 45.3866 40.2016 45.582C40.2712 45.7774 40.3017 45.9846 40.2913 46.1918C40.0392 51.1933 38.0614 57.6602 33.2678 60.8016C29.6949 63.1446 27.4062 62.9864 24.9804 62.8181C23.7275 62.7307 22.4323 62.6414 20.7581 62.899C17.3085 63.4298 13.5286 64.9844 11.6511 72.4908C11.5656 72.8325 11.3683 73.1358 11.0906 73.3524C10.8129 73.5691 10.4708 73.6868 10.1185 73.6867Z" fill="white"/>
<path d="M26.8302 80C26.474 79.9987 26.1287 79.8771 25.8503 79.6548C25.5719 79.4325 25.3768 79.1227 25.2968 78.7756C23.9666 73.0115 25.8349 68.5647 30.8511 65.5539C31.9322 64.9044 33.0579 64.3324 34.2198 63.8419C35.549 63.2615 36.3512 62.911 37.984 61.3205C39.9673 59.3887 42.5136 52.9641 41.9672 44.731C41.9534 44.5241 41.9805 44.3166 42.047 44.1202C42.1134 43.9238 42.2179 43.7424 42.3544 43.5864C42.491 43.4304 42.6569 43.3028 42.8428 43.2109C43.0286 43.119 43.2308 43.0646 43.4376 43.0508C43.6445 43.037 43.8521 43.0642 44.0485 43.1306C44.2449 43.197 44.4263 43.3015 44.5823 43.4381C44.7383 43.5746 44.8659 43.7406 44.9578 43.9264C45.0497 44.1123 45.1041 44.3144 45.1178 44.5213C45.7029 53.3128 43.0803 60.7649 40.1881 63.5825C38.1432 65.575 36.9105 66.1132 35.4837 66.7359C34.4448 67.1723 33.4383 67.6823 32.472 68.2621C28.6581 70.5498 27.3555 73.6655 28.3711 78.0654C28.4238 78.2968 28.4238 78.5371 28.371 78.7685C28.3182 78.9998 28.214 79.2164 28.066 79.4019C27.9181 79.5875 27.7303 79.7374 27.5165 79.8404C27.3027 79.9435 27.0685 79.9971 26.8311 79.9972L26.8302 80Z" fill="white"/>
<path d="M66.0716 50.5421C64.3523 50.5421 62.7223 49.9901 61.4445 48.7133C61.1547 48.4158 60.9937 48.0161 60.9964 47.6008C60.9991 47.1855 61.1653 46.7879 61.459 46.4942C61.7527 46.2005 62.1502 46.0343 62.5656 46.0316C62.9809 46.0289 63.3806 46.1899 63.6781 46.4798C65.539 48.3407 69.1901 47.1403 71.5064 44.961C73.1622 43.4046 73.5734 41.263 74.0095 38.9955C74.4979 36.4621 75.0499 33.5902 77.5189 31.5296C80.2786 29.2252 84.4926 28.7423 90.0452 30.0936C90.4453 30.199 90.7881 30.4571 90.9999 30.8126C91.2117 31.1681 91.2755 31.5925 91.1777 31.9946C91.0798 32.3966 90.8281 32.7442 90.4766 32.9626C90.1251 33.181 89.702 33.2527 89.2982 33.1624C84.7723 32.0585 81.4901 32.328 79.5473 33.9544C77.9429 35.2938 77.5594 37.2863 77.115 39.5934C76.6266 42.1305 76.0728 45.0052 73.6755 47.2617C71.568 49.2376 68.7164 50.5421 66.0716 50.5421Z" fill="white"/>
<path d="M90.0443 59.2038C89.7735 59.2041 89.5072 59.1347 89.271 59.0023C89.0349 58.8699 88.8367 58.6789 88.6957 58.4477C85.0907 52.5557 80.7331 52.6514 79.4885 53.1527C78.6054 53.506 77.7452 53.9061 76.8355 54.3302C73.2405 56.0044 69.1663 57.9003 63.9192 56.1516C61.6682 55.4019 57.4799 54.0055 56.1856 47.5358C56.1035 47.1252 56.1878 46.6988 56.4201 46.3504C56.6524 46.002 57.0136 45.7602 57.4242 45.6781C57.8348 45.596 58.2612 45.6804 58.6096 45.9127C58.958 46.1449 59.1998 46.5061 59.2819 46.9167C60.2166 51.5889 62.8236 52.4573 64.9182 53.1527C68.9712 54.5041 72.0014 53.0939 75.5016 51.461C76.4105 51.0379 77.3497 50.6 78.3147 50.2136C81.2372 49.0445 87.1319 49.8319 91.3892 56.7983C91.5354 57.0376 91.6152 57.3115 91.6205 57.5918C91.6258 57.8721 91.5563 58.1488 91.4193 58.3935C91.2823 58.6381 91.0826 58.8418 90.8408 58.9838C90.599 59.1257 90.3238 59.2007 90.0434 59.2011L90.0443 59.2038Z" fill="white"/>
<path d="M81.5029 73.6868C81.151 73.6864 80.8092 73.5686 80.5319 73.352C80.2546 73.1353 80.0576 72.8323 79.9721 72.4909C78.0955 64.9845 74.3157 63.4299 70.8651 62.8991C69.19 62.6415 67.8957 62.7308 66.6428 62.8182C64.2179 62.9865 61.9292 63.1456 58.3554 60.8017C53.56 57.6603 51.5822 51.1934 51.3301 46.1919C51.3197 45.9848 51.3501 45.7777 51.4197 45.5824C51.4893 45.3872 51.5967 45.2075 51.7357 45.0537C51.8747 44.8999 52.0427 44.775 52.2299 44.6861C52.4172 44.5972 52.6202 44.5461 52.8273 44.5356C53.0343 44.5252 53.2414 44.5556 53.4367 44.6252C53.632 44.6948 53.8117 44.8021 53.9655 44.9411C54.1193 45.0802 54.2442 45.2481 54.3331 45.4354C54.422 45.6227 54.4731 45.8257 54.4836 46.0327C54.6878 50.0665 56.2774 55.6632 60.0857 58.1607C62.7691 59.9205 64.2253 59.8165 66.4229 59.6675C67.7807 59.5755 69.3206 59.466 71.3435 59.777C77.5188 60.7272 81.2333 64.5237 83.0336 71.7246C83.0915 71.9573 83.0957 72.2001 83.0459 72.4347C82.9961 72.6693 82.8935 72.8894 82.746 73.0785C82.5986 73.2675 82.41 73.4206 82.1946 73.526C81.9792 73.6313 81.7426 73.6863 81.5029 73.6868Z" fill="white"/>
<path d="M65.1627 80C64.9254 79.9999 64.6912 79.9463 64.4774 79.8432C64.2636 79.7402 64.0758 79.5903 63.9278 79.4047C63.7799 79.2191 63.6757 79.0026 63.6229 78.7713C63.5701 78.5399 63.57 78.2996 63.6228 78.0682C64.6347 73.6683 63.3349 70.5535 59.5219 68.2648C58.5553 67.685 57.5485 67.175 56.5092 66.7387C55.0825 66.1159 53.8498 65.5778 51.8049 63.5853C48.9127 60.7676 46.2855 53.3155 46.8751 44.5241C46.8889 44.3172 46.9433 44.115 47.0352 43.9292C47.1271 43.7433 47.2547 43.5774 47.4107 43.4408C47.5667 43.3043 47.7481 43.1998 47.9445 43.1334C48.1409 43.0669 48.3484 43.0398 48.5553 43.0536C48.7622 43.0674 48.9643 43.1218 49.1502 43.2136C49.336 43.3055 49.502 43.4331 49.6385 43.5892C49.7751 43.7452 49.8795 43.9266 49.946 44.123C50.0124 44.3194 50.0395 44.5269 50.0258 44.7338C49.4738 52.9669 52.0247 59.3915 54.0089 61.3233C55.6418 62.9138 56.4439 63.2643 57.7732 63.8447C58.9366 64.335 60.0639 64.907 61.1464 65.5567C66.1617 68.5656 68.0301 73.0143 66.7008 78.7784C66.6198 79.1257 66.4238 79.4354 66.1446 79.6571C65.8654 79.8789 65.5193 79.9998 65.1627 80Z" fill="white"/>
<path d="M74.7177 17.2877L46.588 0.245615C46.3187 0.0844052 46.0106 -0.000497019 45.6967 2.18879e-06H45.6313H45.566C45.2521 -0.000497019 44.944 0.0844052 44.6746 0.245615L32.44 7.65909V5.84505C32.44 5.68329 32.4081 5.52312 32.3462 5.37368C32.2843 5.22423 32.1936 5.08845 32.0792 4.97407C31.9648 4.85969 31.829 4.76896 31.6796 4.70706C31.5302 4.64516 31.37 4.6133 31.2082 4.6133H28.7438C28.4171 4.6133 28.1038 4.74307 27.8728 4.97407C27.6418 5.20507 27.5121 5.51837 27.5121 5.84505V10.6442L16.5459 17.2877C16.3389 17.401 16.157 17.555 16.0111 17.7405C15.8652 17.926 15.7584 18.1391 15.6971 18.367C15.6358 18.5949 15.6213 18.8329 15.6545 19.0665C15.6876 19.3002 15.7678 19.5247 15.8901 19.7265C16.0123 19.9284 16.1742 20.1034 16.366 20.241C16.5577 20.3786 16.7753 20.4759 17.0057 20.5271C17.236 20.5783 17.4744 20.5823 17.7064 20.5389C17.9383 20.4956 18.1591 20.4056 18.3554 20.2746L23.9171 16.9087V44.0365C23.9171 44.5001 24.1012 44.9446 24.429 45.2724C24.7568 45.6002 25.2014 45.7843 25.6649 45.7843C26.1285 45.7843 26.573 45.6002 26.9008 45.2724C27.2286 44.9446 27.4127 44.5001 27.4127 44.0365V14.7929L45.635 3.75411L63.8536 14.7929V44.0365C63.8536 44.5001 64.0378 44.9446 64.3656 45.2724C64.6933 45.6002 65.1379 45.7843 65.6015 45.7843C66.065 45.7843 66.5096 45.6002 66.8373 45.2724C67.1651 44.9446 67.3493 44.5001 67.3493 44.0365V16.9087L72.9119 20.2783C73.1082 20.4093 73.3289 20.4992 73.5609 20.5426C73.7929 20.586 74.0312 20.582 74.2616 20.5308C74.492 20.4796 74.7096 20.3822 74.9013 20.2447C75.0931 20.1071 75.255 19.9321 75.3772 19.7302C75.4995 19.5284 75.5796 19.3039 75.6128 19.0702C75.646 18.8366 75.6315 18.5986 75.5702 18.3707C75.5089 18.1428 75.4021 17.9297 75.2562 17.7442C75.1103 17.5587 74.9284 17.4046 74.7213 17.2914L74.7177 17.2877Z" fill="white"/>
<path d="M41.7162 29.9713H33.0884C32.6567 29.9705 32.2428 29.7986 31.9376 29.4932C31.6324 29.1878 31.4607 28.7739 31.4602 28.3421V19.7871C31.4602 19.3545 31.632 18.9396 31.9379 18.6338C32.2438 18.3279 32.6586 18.1561 33.0912 18.1561H41.7189C42.1515 18.1561 42.5663 18.3279 42.8722 18.6338C43.1781 18.9396 43.3499 19.3545 43.3499 19.7871V28.3421C43.3497 28.5564 43.3072 28.7685 43.225 28.9663C43.1427 29.1642 43.0223 29.3439 42.8706 29.4952C42.7189 29.6465 42.5388 29.7664 42.3407 29.8481C42.1427 29.9298 41.9304 29.9716 41.7162 29.9713ZM34.7203 26.7084H40.0852V21.4162H34.7194L34.7203 26.7084Z" fill="white"/>
<path d="M58.3213 29.6833H49.9805C49.548 29.6833 49.1331 29.5115 48.8273 29.2056C48.5214 28.8998 48.3495 28.4849 48.3495 28.0524V19.7871C48.3495 19.3545 48.5214 18.9396 48.8273 18.6338C49.1331 18.3279 49.548 18.1561 49.9805 18.1561H58.3213C58.7538 18.1561 59.1687 18.3279 59.4745 18.6338C59.7804 18.9396 59.9522 19.3545 59.9522 19.7871V28.0524C59.9522 28.4849 59.7804 28.8998 59.4745 29.2056C59.1687 29.5115 58.7538 29.6833 58.3213 29.6833ZM51.6152 26.4204H56.6903V21.4162H51.6124L51.6152 26.4204Z" fill="white"/>
</svg>
