<svg width="1146" height="1508" viewBox="0 0 1146 1508" fill="none" xmlns="http://www.w3.org/2000/svg">
<path d="M427.348 0H256.929L228.955 117.383C228.219 121.063 222.33 120.327 219.754 116.279C208.711 77.642 201.35 37.9011 196.197 0H5.16582C7.37427 85.7374 -0.355308 176.626 0.0127683 261.26H127.367C124.422 214.895 122.214 166.323 122.214 119.223C122.214 102.664 140.986 103.4 140.986 121.063C150.555 169.635 159.021 215.631 167.487 261.26H253.616L292.632 108.92C293.737 104.504 306.251 105.608 306.251 125.846C306.251 171.107 305.515 216.735 304.411 261.26H436.918C436.918 174.051 426.612 88.6811 427.348 0Z" fill="white"/>
<path d="M756.603 76.9061V0H474.657C479.442 86.1053 465.087 179.57 466.927 261.26H766.541V188.033H614.894C601.643 188.033 600.171 179.938 600.171 176.258V159.332C600.171 154.548 603.851 153.076 607.164 153.076H749.977V110.759H607.164C606.06 110.759 600.171 110.759 600.171 103.4V87.9452C600.171 79.8498 604.588 76.9061 612.317 76.9061H756.603Z" fill="white"/>
<path d="M1095.57 165.955H1009.44C1006.13 165.955 1001.71 164.115 1001.71 160.436C1001.71 158.964 1002.82 157.86 1003.92 157.86H1030.42C1097.78 157.86 1132.01 117.015 1132.01 75.8021C1132.01 37.5331 1101.09 0 1040.36 0H791.544C796.697 85.3694 788.967 180.674 790.072 261.26H919.634C915.585 218.207 921.474 158.596 926.627 156.756C920.37 157.86 917.057 147.189 917.057 103.032C917.057 97.5125 921.106 91.6249 929.204 91.6249H976.686C998.034 91.6249 1012.02 105.976 1012.02 124.006C1012.02 142.037 998.034 156.388 979.262 156.388H932.517C951.288 188.401 963.803 224.463 975.949 261.26H1146L1095.57 165.955ZM926.627 156.756C926.995 156.756 926.995 156.756 926.995 156.756H926.627Z" fill="white"/>
<path d="M400.444 287.018H267.201L235.914 402.929C233.338 411.024 220.087 409.184 213.83 399.617C198.371 363.188 192.113 322.343 192.482 287.018H28.32C33.4731 363.188 14.3332 452.237 15.4374 525.463H123.283C115.554 484.619 110.033 438.99 110.033 396.673C110.033 355.093 156.042 356.564 156.042 401.089C162.667 447.453 165.612 486.826 168.925 525.463H242.54L285.973 371.651C289.285 361.348 319.467 363.924 319.467 414.704C319.467 451.869 317.995 489.402 314.682 525.463H424.737C424.737 445.614 398.604 369.811 400.444 287.018Z" fill="white"/>
<path d="M737.865 337.43V287.018H497.88C510.027 363.556 473.955 459.229 478.372 525.463H759.214V476.891H624.13C591.371 476.891 587.323 455.549 587.323 447.085V435.678C587.323 424.271 596.524 420.592 604.622 420.592H729.031V392.626H604.622C602.046 392.626 587.323 392.626 587.323 375.331V364.66C587.323 344.053 599.101 337.43 617.873 337.43H737.865Z" fill="white"/>
<path d="M1089.74 451.869H1011.71C1002.51 451.869 991.837 448.557 991.837 438.622C991.837 434.574 995.15 433.471 996.99 433.471H1023.12C1085.7 433.471 1119.19 396.305 1119.19 356.196C1119.19 320.871 1089.74 287.018 1034.9 287.018H804.119C817.737 362.452 797.493 462.172 800.806 525.463H903.131C892.825 476.891 907.916 433.471 921.535 432.735C904.971 433.471 896.506 413.968 896.506 374.963C896.506 361.348 906.076 346.997 925.584 346.997H982.267C1005.46 346.997 1026.07 364.292 1026.07 389.682C1026.07 415.44 1005.82 432.367 988.524 432.367H935.522C960.919 455.549 971.225 490.138 979.691 525.463H1128.02L1089.74 451.869Z" fill="white"/>
<path d="M391.045 549.592H270.685L238.294 665.135C234.981 674.702 219.154 672.494 211.424 661.455C194.493 625.394 188.972 584.181 191.18 549.592H36.2207C42.478 622.45 19.6573 710.763 20.7616 779.942H121.982C112.412 741.305 105.787 696.412 105.787 655.936C105.787 605.523 161.366 607.363 161.366 661.455C166.887 707.084 167.992 743.881 169.096 779.942H238.662L283.567 626.13C287.616 613.251 324.055 616.931 324.055 678.014C324.055 712.235 322.215 747.193 318.534 779.942H420.491C420.491 703.036 389.205 630.546 391.045 549.592Z" fill="white"/>
<path d="M731.069 590.805V549.592H505.807C520.53 623.186 477.097 719.227 482.25 779.942H756.466V740.201H627.272C587.888 740.201 582.735 714.443 582.735 704.14V694.573C582.735 680.958 593.777 676.542 603.715 676.542H721.867V653.728H603.715C600.402 653.728 582.735 653.728 582.735 632.753V623.922C582.735 598.9 597.089 590.805 619.542 590.805H731.069Z" fill="white"/>
<path d="M1087.74 714.075H1012.65C1001.24 714.075 987.994 710.395 987.994 698.252C987.994 693.469 992.411 691.997 994.619 691.997H1020.75C1081.48 691.997 1114.61 656.304 1114.61 616.563C1114.61 582.709 1085.9 549.592 1032.9 549.592H808.741C824.937 621.714 800.644 722.906 804.692 779.942H897.079C884.933 729.898 902.968 692.365 919.532 691.261C899.656 691.997 888.982 669.183 888.982 632.753C888.982 615.827 900.76 598.532 924.317 598.532H983.945C1007.87 598.532 1031.06 616.931 1031.06 644.896C1031.06 673.23 1008.61 691.261 992.043 691.261H936.463C964.069 711.499 973.639 745.353 981 779.942H1121.97L1087.74 714.075Z" fill="white"/>
<path d="M379.249 809.327H275.452L241.221 924.134C237.541 935.909 218.033 933.334 208.831 919.719C190.059 884.393 184.906 843.181 189.323 809.327H46.8776C54.2391 877.77 26.2654 965.715 27.7377 1029.74H120.125C108.714 993.313 100.249 949.892 100.249 911.623C100.249 849.804 168.342 852.012 168.342 918.247C172.391 962.771 171.287 996.625 169.815 1029.74H233.492L280.605 875.194C285.758 859.739 329.927 863.787 329.927 938.853C329.927 969.395 327.719 1000.67 323.302 1029.74H415.321C415.321 956.148 376.673 888.073 379.249 809.327Z" fill="white"/>
<path d="M722.62 838.765V809.327H516.13C534.166 878.874 481.163 976.018 487.42 1029.74H753.171V1000.67H631.338C583.12 1000.67 576.863 969.395 576.863 956.516V949.524C576.863 933.334 590.481 927.446 602.628 927.446H712.314V911.623H602.628C598.579 911.623 576.863 911.255 576.863 885.865V879.242C576.863 848.7 594.53 838.765 622.136 838.765H722.62Z" fill="white"/>
<path d="M1085.19 973.442H1013.78C999.798 973.442 983.603 969.027 983.603 953.94C983.603 948.42 988.756 946.949 991.7 946.949H1017.47C1076.36 946.949 1108.75 912.727 1108.75 873.722C1108.75 840.973 1081.14 809.327 1030.72 809.327H814.288C834.532 877.034 804.718 980.434 809.503 1029.74H889.744C874.653 977.122 896.737 946.949 916.981 946.213C892.688 946.581 879.806 920.087 879.806 885.865C879.806 865.259 894.161 844.284 922.87 844.284H986.547C1011.21 844.284 1037.34 863.787 1037.34 895.433C1037.34 927.078 1012.31 946.213 996.117 946.213H937.961C968.512 962.771 976.977 995.521 982.499 1029.74H1113.9L1085.19 973.442Z" fill="white"/>
<path d="M362.669 1057.76H281.324L245.253 1171.83C240.468 1186.18 216.543 1182.87 204.765 1166.31C183.416 1131.72 179.367 1089.77 187.097 1057.76H60.4792C69.681 1120.32 34.7139 1207.16 36.5543 1264.19H117.531C103.176 1231.44 92.8698 1189.86 92.8698 1154.17C92.8698 1077.26 177.527 1080.21 177.527 1162.63C179.367 1205.69 174.951 1235.49 170.166 1264.19H226.849L276.539 1109.28C282.796 1089.77 337.64 1095.29 337.64 1188.39C337.64 1214.15 335.063 1240.64 329.542 1264.19H407.574C407.574 1195.38 359.724 1133.19 362.669 1057.76Z" fill="white"/>
<path d="M711.236 1071.01V1057.76H529.775C552.227 1121.79 486.342 1220.04 494.072 1264.19H748.779V1250.21H636.517C576.52 1250.21 568.791 1210.84 568.791 1195.01V1191.7C568.791 1171.1 585.722 1164.47 600.813 1164.47H699.457V1157.11H600.813C596.028 1157.11 568.791 1156.74 568.791 1125.1V1121.79C568.791 1083.89 590.875 1071.01 625.106 1071.01H711.236Z" fill="white"/>
<path d="M1081.91 1221.14H1015.29C997.992 1221.14 977.748 1215.62 977.748 1197.22C977.748 1189.86 984.005 1188.39 988.054 1188.39H1013.08C1069.4 1188.39 1101.05 1156.38 1101.05 1118.11C1101.05 1087.57 1074.55 1057.76 1027.44 1057.76H822.052C847.081 1119.21 809.906 1225.56 815.795 1264.19H879.84C861.068 1208.63 888.674 1188.39 914.071 1188.02C883.521 1188.02 867.694 1156.01 867.694 1125.1C867.694 1099.71 885.361 1073.58 921.064 1073.58H989.895C1015.66 1073.58 1045.84 1094.56 1045.84 1130.99C1045.84 1167.42 1017.13 1188.02 1002.04 1188.02H939.836C974.435 1199.43 981.429 1230.71 985.11 1264.19H1103.26L1081.91 1221.14Z" fill="white"/>
<path d="M201.803 1419.69C178.246 1386.2 174.933 1343.88 185.239 1312.98H71.8722C82.9145 1370.75 42.0582 1456.48 44.2666 1508H115.673C98.7417 1477.83 86.5952 1437.72 86.5952 1404.6C86.5952 1315.18 185.239 1318.49 185.239 1414.17C185.239 1456.48 178.246 1482.61 170.884 1508H221.311L248.548 1426.31C243.027 1442.87 215.422 1439.19 201.803 1419.69ZM401.667 1508C401.667 1442.87 345.72 1385.47 349.401 1312.98H286.46L273.577 1350.88C283.147 1330.27 344.248 1338.37 344.248 1444.34C344.248 1466.42 341.303 1488.87 334.678 1508H401.667ZM248.548 1426.31L273.577 1350.88L273.209 1352.35L248.548 1426.31Z" fill="white"/>
<path d="M641.319 1506.16C571.385 1506.16 562.551 1460.53 562.551 1442.13V1441.4C562.551 1417.85 582.059 1409.75 599.726 1409.75C594.205 1409.75 562.551 1409.38 562.551 1372.95V1371.85C562.551 1327.69 587.948 1312.98 627.7 1312.98H541.571C567.704 1372.22 490.776 1471.57 499.61 1508H745.116V1506.16H641.319Z" fill="white"/>
<path d="M919.618 1312.98H828.704C857.781 1369.27 814.349 1477.83 821.342 1508H871.768C850.052 1449.49 882.443 1437.72 911.889 1437.72C875.817 1437.72 857.413 1400.92 857.413 1372.95C857.413 1343.52 878.026 1312.98 919.618 1312.98ZM1052.86 1375.53C1052.86 1416.01 1021.21 1437.72 1006.85 1437.72H1009.43C1063.54 1437.72 1094.82 1407.54 1094.82 1370.01C1094.82 1340.94 1069.06 1312.98 1024.89 1312.98H992.865C1019.73 1312.98 1052.86 1335.42 1052.86 1375.53ZM1016.42 1475.62C996.546 1475.62 972.989 1469.36 972.989 1448.02C972.989 1439.56 980.351 1437.72 984.767 1437.72H941.334C979.614 1444.71 985.135 1475.25 986.976 1508H1094.45L1079.36 1475.62H1016.42Z" fill="white"/>
</svg>
